{"title":"Zila Ghaziabad (2013) (Audio Cleaned) HD SCam Rip Hindi Movie","uid":8177051,"size":745347149,"categoryP":"video","categoryS":"movies","magnet":"?xt=urn:btih:98f14a6fc04fe26d8c5b5e10f88ce4bdca3e6b28&amp;dn=Zila+Ghaziabad+%282013%29+%28Audio+Cleaned%29+HD+SCam+Rip+Hindi+Movie&amp;tr=udp%3A%2F%2Ftracker.openbittorrent.com%3A80&amp;tr=udp%3A%2F%2Fopen.demonii.com%3A1337&amp;tr=udp%3A%2F%2Ftracker.coppersurfer.tk%3A6969&amp;tr=udp%3A%2F%2Fexodus.desync.com%3A6969","seeders":1,"leechers":0,"uploader":"shaan666","files":-1,"time":1361550464,"description":"Zila Ghaziabad (2013)\n\n\n &lt;a href=&quot;\nhttp://www.shotpix.com/images/91801164291943612018.jpg&quot; rel=&quot;nofollow&quot; target=&quot;_NEW&quot;&gt;\nhttp://www.shotpix.com/images/91801164291943612018.jpg&lt;/a&gt;\n\n\n\n\n\n[B]INFO[/B]\n[code]General\nFormat : MPEG-PS\nFile size : 711 MiB\nDuration : 2h 9mn\nOverall bit rate mode : Variable\nOverall bit rate : 770 Kbps\nVideo #224\nID : 224 (0xE0)\nFormat : MPEG Video\nFormat version : Version 2\nFormat profile : Main@Main\nFormat settings, BVOP : Yes\nFormat settings, Matrix : Default\nFormat settings, GOP : Variable\nDuration : 2h 9mn\nBit rate mode : Variable\nBit rate : 627 Kbps\nWidth : 352 pixels\nHeight : 288 pixels\nDisplay aspect ratio : 4:3\nFrame rate : 25.000 fps\nStandard : PAL\nColor space : YUV\nChroma subsampling : 4:2:0\nBit depth : 8 bits\nScan type : Progressive\nCompression mode : Lossy\nBits/(Pixel*Frame) : 0.247\nStream size : 578 MiB (81%)\n\nAUDIO\n\nAudio #192\nID : 192 (0xC0)\nFormat : MPEG Audio\nFormat version : Version 1\nFormat profile : Layer 2\nDuration : 2h 9mn\nBit rate mode : Constant\nBit rate : 128 Kbps\nChannel(s) : 2 channels\nSampling rate : 48.0 KHz\nCompression mode : Lossy\nDelay relative to video : -600ms\nStream size : 118 MiB (17%)[/code]\n\n\n\n\n\n\nSCREEN SHOTS\n &lt;a href=&quot;\nhttp://www.shotpix.com/images/68142978105732069199.png&quot; rel=&quot;nofollow&quot; target=&quot;_NEW&quot;&gt;\nhttp://www.shotpix.com/images/68142978105732069199.png&lt;/a&gt;\n &lt;a href=&quot;\nhttp://www.shotpix.com/images/61562551297712711246.png&quot; rel=&quot;nofollow&quot; target=&quot;_NEW&quot;&gt;\nhttp://www.shotpix.com/images/61562551297712711246.png&lt;/a&gt;\n &lt;a href=&quot;\nhttp://www.shotpix.com/images/76933028014483999855.png&quot; rel=&quot;nofollow&quot; target=&quot;_NEW&quot;&gt;\nhttp://www.shotpix.com/images/76933028014483999855.png&lt;/a&gt;\n &lt;a href=&quot;\nhttp://www.shotpix.com/images/04252219257028082022.png&quot; rel=&quot;nofollow&quot; target=&quot;_NEW&quot;&gt;\nhttp://www.shotpix.com/images/04252219257028082022.png&lt;/a&gt;\n &lt;a href=&quot;\nhttp://www.shotpix.com/images/15994501391706894911.png&quot; rel=&quot;nofollow&quot; target=&quot;_NEW&quot;&gt;\nhttp://www.shotpix.com/images/15994501391706894911.png&lt;/a&gt;\n &lt;a href=&quot;\nhttp://www.shotpix.com/images/05326832812030215985.png&quot; rel=&quot;nofollow&quot; target=&quot;_NEW&quot;&gt;\nhttp://www.shotpix.com/images/05326832812030215985.png&lt;/a&gt;\n &lt;a href=&quot;\nhttp://www.shotpix.com/images/42664118157514088531.png&quot; rel=&quot;nofollow&quot; target=&quot;_NEW&quot;&gt;\nhttp://www.shotpix.com/images/42664118157514088531.png&lt;/a&gt;\n &lt;a href=&quot;\nhttp://www.shotpix.com/images/42687312747226052970.png&quot; rel=&quot;nofollow&quot; target=&quot;_NEW&quot;&gt;\nhttp://www.shotpix.com/images/42687312747226052970.png&lt;/a&gt;\n &lt;a href=&quot;\nhttp://www.shotpix.com/images/63603638149614599157.png&quot; rel=&quot;nofollow&quot; target=&quot;_NEW&quot;&gt;\nhttp://www.shotpix.com/images/63603638149614599157.png&lt;/a&gt;","torrent":{"xt":"urn:btih:98f14a6fc04fe26d8c5b5e10f88ce4bdca3e6b28","amp;dn":"Zila+Ghaziabad+%282013%29+%28Audio+Cleaned%29+HD+SCam+Rip+Hindi+Movie","amp;tr":["udp%3A%2F%2Ftracker.openbittorrent.com%3A80","udp%3A%2F%2Fopen.demonii.com%3A1337","udp%3A%2F%2Ftracker.coppersurfer.tk%3A6969","udp%3A%2F%2Fexodus.desync.com%3A6969"],"infoHash":"98f14a6fc04fe26d8c5b5e10f88ce4bdca3e6b28","infoHashBuffer":{"type":"Buffer","data":[152,241,74,111,192,79,226,109,140,91,94,16,248,140,228,189,202,62,107,40]},"announce":[],"urlList":[]}}